<svg width="19" height="17" viewBox="0 0 19 17" fill="none" xmlns="http://www.w3.org/2000/svg">
<path d="M14.9167 0.75H3.25C2.07149 0.75 1.48223 0.75 1.11612 1.0935C0.75 1.437 0.75 1.98985 0.75 3.09555V3.6704C0.75 4.53527 0.75 4.9677 0.966334 5.32618C1.18267 5.68466 1.57789 5.90715 2.36835 6.35212L4.79587 7.71865C5.32622 8.0172 5.59139 8.16648 5.78126 8.33131C6.17666 8.67458 6.42007 9.07793 6.53037 9.57264C6.58333 9.8102 6.58333 10.0882 6.58333 10.6441L6.58333 12.8687C6.58333 13.6266 6.58333 14.0056 6.79327 14.3011C7.00321 14.5965 7.37607 14.7423 8.1218 15.0338C9.68732 15.6458 10.4701 15.9518 11.0267 15.6037C11.5833 15.2555 11.5833 14.4599 11.5833 12.8687V10.6441C11.5833 10.0882 11.5833 9.8102 11.6363 9.57264C11.7466 9.07793 11.99 8.67458 12.3854 8.33131C12.5753 8.16648 12.8404 8.0172 13.3708 7.71865L15.7983 6.35212C16.5888 5.90715 16.984 5.68466 17.2003 5.32618C17.4167 4.9677 17.4167 4.53527 17.4167 3.6704V3.09555C17.4167 1.98985 17.4167 1.437 17.0506 1.0935C16.6844 0.75 16.0952 0.75 14.9167 0.75Z" stroke="#7367F0" stroke-width="1.5"/>
</svg>
