<svg width="24" height="24" viewBox="0 0 24 24" fill="none" xmlns="http://www.w3.org/2000/svg">
<rect width="24" height="24" rx="12" fill="#FFF8D5"/>
<path d="M11.667 5.33301C14.4281 5.33319 16.6668 7.62387 16.667 10.4492C16.667 11.9641 16.0227 13.3266 15.001 14.2627C14.6605 14.5746 14.4082 14.8059 14.2295 14.9736C14.1403 15.0573 14.0719 15.1226 14.0215 15.1729C13.9964 15.1979 13.9772 15.218 13.9629 15.2334C13.9559 15.2409 13.9502 15.2466 13.9463 15.251C13.9423 15.2555 13.9404 15.2578 13.9404 15.2578C13.7829 15.4568 13.7488 15.5082 13.7285 15.5547C13.7082 15.6012 13.6931 15.6613 13.6533 15.9141C13.6376 16.014 13.6367 16.1857 13.6367 16.6514V16.6709C13.6367 16.9436 13.6362 17.179 13.6191 17.3721C13.6011 17.5761 13.5614 17.7783 13.4541 17.9688C13.3344 18.1809 13.1614 18.357 12.9541 18.4795C12.768 18.5894 12.5705 18.6309 12.3711 18.6494C12.1826 18.6669 11.9528 18.667 11.6865 18.667H11.6475C11.3809 18.667 11.1506 18.6669 10.9619 18.6494C10.7624 18.6309 10.5651 18.5895 10.3789 18.4795C10.1716 18.357 9.99956 18.1809 9.87988 17.9688C9.77242 17.7783 9.73195 17.5762 9.71387 17.3721C9.69678 17.179 9.69726 16.9436 9.69727 16.6709V16.6514C9.69727 16.1857 9.69539 16.014 9.67969 15.9141C9.63996 15.6614 9.62481 15.6012 9.60449 15.5547C9.58416 15.5082 9.55012 15.4567 9.39258 15.2578C9.39258 15.2578 9.39051 15.2553 9.38672 15.251C9.38291 15.2466 9.37791 15.2407 9.37109 15.2334C9.35679 15.2181 9.33756 15.1978 9.3125 15.1729C9.26214 15.1227 9.19365 15.0573 9.10449 14.9736C8.9257 14.8059 8.67256 14.5747 8.33203 14.2627C7.31032 13.3266 6.66699 11.9641 6.66699 10.4492C6.6672 7.62376 8.9057 5.33301 11.667 5.33301ZM10.6191 17.2881C10.6315 17.4277 10.6527 17.4786 10.667 17.5039C10.7068 17.5745 10.7641 17.633 10.833 17.6738C10.8578 17.6885 10.9076 17.71 11.0439 17.7227C11.1866 17.7359 11.3754 17.7363 11.667 17.7363C11.9583 17.7363 12.1464 17.7359 12.2891 17.7227C12.4255 17.71 12.4752 17.6885 12.5 17.6738C12.569 17.633 12.6262 17.5745 12.666 17.5039C12.6803 17.4786 12.7015 17.4277 12.7139 17.2881C12.7184 17.2373 12.7217 17.1808 12.7236 17.1162H10.6104C10.6123 17.1808 10.6146 17.2373 10.6191 17.2881ZM12.4072 9.45117C12.2029 9.30187 11.9184 9.35054 11.7725 9.55957L10.4746 11.4199C10.3758 11.5615 10.3618 11.7475 10.4395 11.9023C10.5173 12.0572 10.6736 12.1552 10.8438 12.1553H11.7793L10.9941 13.2803C10.8482 13.4893 10.8953 13.7794 11.0996 13.9287C11.3039 14.0779 11.5875 14.0293 11.7334 13.8203L13.0322 11.96C13.131 11.8183 13.1441 11.6323 13.0664 11.4775C12.9885 11.3226 12.8324 11.2246 12.6621 11.2246H11.7275L12.5127 10.0996C12.6584 9.89068 12.6112 9.6005 12.4072 9.45117ZM2.00977 2.00977H2V2H2.00977V2.00977Z" fill="#DEC029"/>
</svg>
