<svg width="20" height="20" viewBox="0 0 20 20" fill="none" xmlns="http://www.w3.org/2000/svg">
<g clip-path="url(#clip0_40007669_14299)">
<path d="M1.66602 10.0001C1.66602 6.07171 1.66602 4.10752 2.8864 2.88714C4.10679 1.66675 6.07098 1.66675 9.99935 1.66675C13.9277 1.66675 15.8919 1.66675 17.1123 2.88714C18.3327 4.10752 18.3327 6.07171 18.3327 10.0001C18.3327 13.9285 18.3327 15.8926 17.1123 17.113C15.8919 18.3334 13.9277 18.3334 9.99935 18.3334C6.07098 18.3334 4.10679 18.3334 2.8864 17.113C1.66602 15.8926 1.66602 13.9285 1.66602 10.0001Z" stroke="white" stroke-width="1.5"/>
<path d="M5.83398 15V7.5" stroke="white" stroke-width="1.5" stroke-linecap="round"/>
<path d="M10 15V5" stroke="white" stroke-width="1.5" stroke-linecap="round"/>
<path d="M14.166 14.9999V10.8333" stroke="white" stroke-width="1.5" stroke-linecap="round"/>
</g>
<defs>
<clipPath id="clip0_40007669_14299">
<rect width="20" height="20" fill="white"/>
</clipPath>
</defs>
</svg>
