<svg width="20" height="20" viewBox="0 0 20 20" fill="none" xmlns="http://www.w3.org/2000/svg">
<path d="M3.33398 5.00008V15.8334C3.33398 17.2141 4.45327 18.3334 5.83398 18.3334H14.1673C15.548 18.3334 16.6673 17.2141 16.6673 15.8334V7.50008C16.6673 6.11937 15.548 5.00008 14.1673 5.00008H3.33398ZM3.33398 5.00008V4.16675" stroke="#A4A7AE" stroke-width="1.5"/>
<path d="M15.0007 5.00002V5.75002H15.7507V5.00002H15.0007ZM13.0983 1.93845L12.9922 1.19599L13.0983 1.93845ZM4.10031 3.22387L3.99425 2.48141H3.99425L4.10031 3.22387ZM4.22654 5.00002V5.75002H15.0007V5.00002V4.25002H4.22654V5.00002ZM15.0007 5.00002H15.7507V3.58837H15.0007H14.2507V5.00002H15.0007ZM13.0983 1.93845L12.9922 1.19599L3.99425 2.48141L4.10031 3.22387L4.20638 3.96634L13.2043 2.68091L13.0983 1.93845ZM4.10031 3.22387L3.99425 2.48141C3.18504 2.59701 2.58398 3.29004 2.58398 4.10746H3.33398H4.08398C4.08398 4.03652 4.13615 3.97637 4.20638 3.96634L4.10031 3.22387ZM15.0007 3.58837H15.7507C15.7507 2.11771 14.4481 0.988006 12.9922 1.19599L13.0983 1.93845L13.2043 2.68091C13.7566 2.60202 14.2507 3.03053 14.2507 3.58837H15.0007ZM4.22654 5.00002V4.25002C4.14781 4.25002 4.08398 4.18619 4.08398 4.10746H3.33398H2.58398C2.58398 5.01462 3.31938 5.75002 4.22654 5.75002V5.00002Z" fill="#A4A7AE"/>
<path d="M6.66602 10H13.3327" stroke="#A4A7AE" stroke-width="1.5" stroke-linecap="round"/>
<path d="M6.66602 12.9167H11.2493" stroke="#A4A7AE" stroke-width="1.5" stroke-linecap="round"/>
</svg>
