<svg
  width="20"
  height="20"
  viewBox="0 0 20 20"
  fill="none"
  xmlns="http://www.w3.org/2000/svg"
>
  <g clip-path="url(#clip0_40007586_610)">
    <path
      d="M10 5.83325L10 11.6666M10 11.6666L12.5 9.16659M10 11.6666L7.5 9.16659"
      stroke="currentColor"
      stroke-width="1.5"
      stroke-linecap="round"
      stroke-linejoin="round"
    />
    <path
      d="M13.3332 14.1667H9.99984H6.6665"
      stroke="currentColor"
      stroke-width="1.5"
      stroke-linecap="round"
    />
    <path
      d="M1.6665 10.0001C1.6665 6.07171 1.6665 4.10752 2.88689 2.88714C4.10728 1.66675 6.07147 1.66675 9.99984 1.66675C13.9282 1.66675 15.8924 1.66675 17.1128 2.88714C18.3332 4.10752 18.3332 6.07171 18.3332 10.0001C18.3332 13.9285 18.3332 15.8926 17.1128 17.113C15.8924 18.3334 13.9282 18.3334 9.99984 18.3334C6.07147 18.3334 4.10728 18.3334 2.88689 17.113C1.6665 15.8926 1.6665 13.9285 1.6665 10.0001Z"
      stroke="currentColor"
      stroke-width="1.5"
    />
  </g>
  <defs>
    <clipPath id="clip0_40007586_610">
      <rect width="20" height="20" rx="5" fill="none" />
    </clipPath>
  </defs>
</svg>
