<svg width="86" height="141" viewBox="0 0 86 141" fill="none" xmlns="http://www.w3.org/2000/svg">
<path d="M4.50173 81.2617C10.504 87.2699 20.2357 87.2699 26.238 81.2617C32.2403 75.2535 32.2403 65.5124 26.238 59.5042C20.2357 53.496 10.504 53.496 4.50173 59.5042C-1.50058 65.5124 -1.50058 75.2535 4.50173 81.2617Z" fill="#7367F0"/>
<path d="M26.238 81.2617C32.2403 75.2535 32.2403 65.5124 26.238 59.5042C20.2357 53.496 10.504 53.496 4.50173 59.5042C-1.50058 65.5124 -1.50058 75.2535 4.50173 81.2617C10.504 87.2699 20.2357 87.2699 26.238 81.2617Z" fill="#7367F0"/>
<path d="M31.9738 108.761C37.9761 114.77 47.7078 114.77 53.7101 108.761C59.7124 102.753 59.7124 93.012 53.7101 87.0039C47.7078 80.9957 37.9761 80.9957 31.9738 87.0039C25.9715 93.012 25.9715 102.753 31.9738 108.761Z" fill="#7367F0"/>
<path d="M53.7101 53.7627C59.7124 47.7545 59.7124 38.0133 53.7101 32.0052C47.7078 25.997 37.9761 25.997 31.9738 32.0052C25.9715 38.0133 25.9715 47.7545 31.9738 53.7627C37.9761 59.7708 47.7078 59.7708 53.7101 53.7627Z" fill="#7367F0"/>
<path d="M59.4457 136.26C65.448 142.268 75.1796 142.268 81.1819 136.26C87.1842 130.252 87.1842 120.511 81.1819 114.502C75.1796 108.494 65.448 108.494 59.4457 114.502C53.4433 120.511 53.4433 130.252 59.4457 136.26Z" fill="#7367F0"/>
<path d="M81.1819 26.2636C87.1842 20.2555 87.1842 10.5143 81.1819 4.50612C75.1796 -1.50204 65.4479 -1.50204 59.4456 4.50612C53.4433 10.5143 53.4433 20.2555 59.4456 26.2636C65.4479 32.2718 75.1796 32.2718 81.1819 26.2636Z" fill="#7367F0"/>
<path d="M81.1817 81.2616C75.1794 87.2698 65.4477 87.2698 59.4454 81.2616C53.4431 75.2535 53.4431 65.5123 59.4454 59.5041C65.4477 53.496 75.1794 53.496 81.1817 59.5041C87.184 65.5123 87.184 75.2535 81.1817 81.2616Z" fill="#7367F0"/>
</svg>
