<svg width="280" height="141" viewBox="0 0 280 141" fill="none" xmlns="http://www.w3.org/2000/svg">
<path d="M4.50173 81.2617C10.504 87.2699 20.2357 87.2699 26.238 81.2617C32.2403 75.2535 32.2403 65.5124 26.238 59.5042C20.2357 53.496 10.504 53.496 4.50173 59.5042C-1.50058 65.5124 -1.50058 75.2535 4.50173 81.2617Z" fill="#7367F0"/>
<path d="M26.238 81.2617C32.2403 75.2535 32.2403 65.5124 26.238 59.5042C20.2357 53.496 10.504 53.496 4.50173 59.5042C-1.50058 65.5124 -1.50058 75.2535 4.50173 81.2617C10.504 87.2699 20.2357 87.2699 26.238 81.2617Z" fill="#7367F0"/>
<path d="M31.9738 108.761C37.9761 114.77 47.7078 114.77 53.7101 108.761C59.7124 102.753 59.7124 93.012 53.7101 87.0039C47.7078 80.9957 37.9761 80.9957 31.9738 87.0039C25.9715 93.012 25.9715 102.753 31.9738 108.761Z" fill="#7367F0"/>
<path d="M53.7101 53.7627C59.7124 47.7545 59.7124 38.0133 53.7101 32.0052C47.7078 25.997 37.9761 25.997 31.9738 32.0052C25.9715 38.0133 25.9715 47.7545 31.9738 53.7627C37.9761 59.7708 47.7078 59.7708 53.7101 53.7627Z" fill="#7367F0"/>
<path d="M59.4457 136.26C65.448 142.268 75.1796 142.268 81.1819 136.26C87.1842 130.252 87.1842 120.511 81.1819 114.502C75.1796 108.494 65.448 108.494 59.4457 114.502C53.4433 120.511 53.4433 130.252 59.4457 136.26Z" fill="#7367F0"/>
<path d="M81.1819 26.2636C87.1842 20.2555 87.1842 10.5143 81.1819 4.50612C75.1796 -1.50204 65.4479 -1.50204 59.4456 4.50612C53.4433 10.5143 53.4433 20.2555 59.4456 26.2636C65.4479 32.2718 75.1796 32.2718 81.1819 26.2636Z" fill="#7367F0"/>
<path d="M81.1817 81.2616C75.1794 87.2698 65.4477 87.2698 59.4454 81.2616C53.4431 75.2535 53.4431 65.5123 59.4454 59.5041C65.4477 53.496 75.1794 53.496 81.1817 59.5041C87.184 65.5123 87.184 75.2535 81.1817 81.2616Z" fill="#7367F0"/>
<path d="M109.315 48.0652L106.631 39.3441L127.803 17.8768H140.066L109.315 48.0652ZM101.749 60.5674V17.8768H112.122V60.5674H101.749ZM129.145 60.5674L113.281 39.71L120.298 33.6723L141.226 60.5674H129.145Z" fill="black"/>
<path d="M147.463 74.5943L154.845 57.2131L154.967 62.214L139.348 28.1836H150.391L157.225 44.467C157.591 45.2801 157.937 46.1542 158.262 47.0894C158.587 48.0245 158.832 48.919 158.994 49.7728L157.652 50.5656C157.896 49.9557 158.16 49.2036 158.445 48.3091C158.771 47.374 159.116 46.3779 159.482 45.3208L165.462 28.1836H176.566L162.777 60.5674L157.164 74.5943H147.463Z" fill="black"/>
<path d="M181.211 73.9844V28.1836H190.485L190.851 35.4409L189.02 34.8921C189.305 33.5504 189.997 32.3306 191.095 31.2329C192.193 30.1351 193.576 29.261 195.244 28.6105C196.952 27.9193 198.742 27.5737 200.613 27.5737C203.379 27.5737 205.84 28.3055 207.996 29.7692C210.152 31.1922 211.84 33.1641 213.06 35.6849C214.321 38.165 214.952 41.0517 214.952 44.345C214.952 47.5976 214.321 50.4843 213.06 53.0051C211.84 55.5258 210.131 57.5181 207.935 58.9817C205.779 60.4048 203.298 61.1163 200.491 61.1163C198.661 61.1163 196.912 60.7707 195.244 60.0795C193.576 59.3883 192.173 58.4532 191.034 57.2741C189.895 56.0951 189.142 54.8143 188.776 53.432L191.034 52.5782V73.9844H181.211ZM198.112 52.8831C199.576 52.8831 200.857 52.5375 201.955 51.8463C203.054 51.1145 203.908 50.1184 204.518 48.858C205.128 47.5976 205.433 46.0933 205.433 44.345C205.433 42.6374 205.128 41.1534 204.518 39.893C203.908 38.5919 203.054 37.5958 201.955 36.9046C200.898 36.1728 199.617 35.8069 198.112 35.8069C196.607 35.8069 195.305 36.1525 194.207 36.8436C193.108 37.5348 192.254 38.5309 191.644 39.832C191.034 41.133 190.729 42.6374 190.729 44.345C190.729 46.0933 191.034 47.5976 191.644 48.858C192.254 50.1184 193.108 51.1145 194.207 51.8463C195.305 52.5375 196.607 52.8831 198.112 52.8831Z" fill="black"/>
<path d="M236.867 61.1773C233.287 61.1773 230.175 60.4657 227.531 59.0427C224.888 57.5791 222.833 55.6072 221.369 53.127C219.905 50.6063 219.173 47.7399 219.173 44.5279C219.173 42.0478 219.579 39.771 220.393 37.6974C221.206 35.6239 222.345 33.835 223.81 32.3306C225.274 30.7856 227.003 29.6066 228.996 28.7934C231.03 27.9396 233.246 27.5127 235.646 27.5127C237.924 27.5127 239.999 27.9193 241.87 28.7324C243.782 29.5456 245.429 30.684 246.812 32.1477C248.195 33.6114 249.253 35.3393 249.985 37.3315C250.717 39.3238 251.042 41.4989 250.961 43.8571L250.9 46.4795H225.091L223.688 40.9907H242.968L241.931 42.1495V40.9297C241.85 39.9133 241.524 39.0188 240.955 38.2463C240.426 37.4332 239.714 36.803 238.819 36.3557C237.924 35.9085 236.907 35.6849 235.768 35.6849C234.182 35.6849 232.819 36.0102 231.68 36.6607C230.582 37.2705 229.748 38.1853 229.179 39.4051C228.609 40.5841 228.325 42.0478 228.325 43.7961C228.325 45.585 228.691 47.1504 229.423 48.4921C230.196 49.7931 231.294 50.8096 232.718 51.5414C234.182 52.2732 235.911 52.6391 237.904 52.6391C239.287 52.6391 240.507 52.4359 241.565 52.0293C242.663 51.6227 243.843 50.9315 245.104 49.9557L249.68 56.4203C248.419 57.5181 247.076 58.4125 245.653 59.1037C244.229 59.7949 242.765 60.3031 241.26 60.6284C239.795 60.9943 238.331 61.1773 236.867 61.1773Z" fill="black"/>
<path d="M257.181 60.5674V28.1836H266.455L266.882 38.7342L265.051 36.7217C265.54 34.9734 266.333 33.4081 267.431 32.0257C268.57 30.6433 269.892 29.5456 271.397 28.7324C272.902 27.9193 274.509 27.5127 276.217 27.5127C276.949 27.5127 277.62 27.5737 278.231 27.6957C278.881 27.8176 279.471 27.9599 280 28.1226L277.315 38.9172C276.868 38.6326 276.258 38.409 275.485 38.2463C274.753 38.043 273.98 37.9414 273.166 37.9414C272.272 37.9414 271.438 38.104 270.665 38.4293C269.892 38.7139 269.241 39.1408 268.712 39.71C268.184 40.2792 267.756 40.9501 267.431 41.7226C267.146 42.4951 267.004 43.3692 267.004 44.345V60.5674H257.181Z" fill="black"/>
<path d="M119.026 122.889C115.991 122.889 113.257 122.387 110.825 121.382C108.413 120.358 106.413 118.911 104.825 117.042C103.257 115.174 102.232 112.954 101.749 110.382L106.272 109.628C106.996 112.441 108.524 114.651 110.855 116.259C113.187 117.846 115.971 118.64 119.207 118.64C121.338 118.64 123.248 118.308 124.936 117.645C126.625 116.962 127.951 115.998 128.916 114.752C129.881 113.506 130.364 112.029 130.364 110.322C130.364 109.196 130.163 108.242 129.761 107.458C129.359 106.655 128.826 105.992 128.163 105.469C127.499 104.947 126.776 104.515 125.992 104.173C125.208 103.812 124.444 103.52 123.7 103.299L112.695 100.014C111.368 99.6326 110.142 99.1504 109.016 98.5677C107.89 97.9649 106.905 97.2517 106.061 96.4279C105.237 95.584 104.594 94.5995 104.131 93.4743C103.669 92.3492 103.438 91.0633 103.438 89.6166C103.438 87.1654 104.081 85.0457 105.368 83.2575C106.654 81.4693 108.413 80.093 110.644 79.1285C112.875 78.1641 115.418 77.692 118.273 77.712C121.167 77.712 123.75 78.2244 126.022 79.2491C128.313 80.2738 130.203 81.7405 131.69 83.6493C133.178 85.5379 134.163 87.7782 134.645 90.3701L130.002 91.214C129.7 89.3253 129.007 87.6878 127.921 86.3014C126.836 84.9151 125.449 83.8502 123.76 83.1068C122.092 82.3433 120.253 81.9515 118.243 81.9314C116.293 81.9314 114.554 82.2629 113.026 82.926C111.519 83.5689 110.323 84.453 109.438 85.5781C108.554 86.7033 108.111 87.9892 108.111 89.4358C108.111 90.9025 108.513 92.0779 109.318 92.962C110.142 93.846 111.147 94.5392 112.333 95.0415C113.539 95.5438 114.705 95.9557 115.83 96.2772L124.333 98.7787C125.218 99.0198 126.253 99.3714 127.439 99.8335C128.645 100.276 129.811 100.918 130.937 101.762C132.082 102.586 133.027 103.671 133.771 105.017C134.515 106.363 134.886 108.071 134.886 110.141C134.886 112.15 134.484 113.948 133.68 115.536C132.896 117.123 131.781 118.459 130.333 119.544C128.906 120.629 127.228 121.453 125.298 122.015C123.388 122.598 121.298 122.889 119.026 122.889Z" fill="black"/>
<path d="M158.84 121.985C157.011 122.367 155.202 122.518 153.412 122.437C151.644 122.357 150.056 121.975 148.648 121.292C147.261 120.609 146.206 119.544 145.483 118.097C144.9 116.892 144.578 115.676 144.518 114.451C144.477 113.205 144.457 111.788 144.457 110.201V80.3943H148.86V110.02C148.86 111.386 148.87 112.532 148.89 113.456C148.93 114.36 149.141 115.164 149.523 115.867C150.247 117.213 151.392 118.017 152.96 118.278C154.548 118.539 156.508 118.479 158.84 118.097V121.985ZM137.492 93.2332V89.4358H158.84V93.2332H137.492Z" fill="black"/>
<path d="M177.708 122.799C175.759 122.799 174.05 122.497 172.583 121.895C171.135 121.292 169.899 120.478 168.874 119.453C167.869 118.429 167.055 117.263 166.432 115.957C165.808 114.631 165.356 113.235 165.075 111.768C164.793 110.281 164.653 108.805 164.653 107.338V89.4358H169.115V106.042C169.115 107.83 169.286 109.488 169.628 111.015C169.969 112.542 170.512 113.878 171.256 115.023C172.02 116.148 172.995 117.022 174.181 117.645C175.387 118.268 176.844 118.579 178.553 118.579C180.121 118.579 181.498 118.308 182.683 117.766C183.89 117.223 184.895 116.45 185.699 115.445C186.523 114.42 187.146 113.185 187.568 111.738C187.99 110.271 188.201 108.624 188.201 106.795L191.337 107.489C191.337 110.824 190.754 113.627 189.588 115.897C188.422 118.168 186.814 119.885 184.764 121.051C182.714 122.216 180.362 122.799 177.708 122.799ZM188.654 121.985V113.968H188.201V89.4358H192.634V121.985H188.654Z" fill="black"/>
<path d="M213.695 122.889C210.66 122.889 208.066 122.136 205.916 120.629C203.765 119.102 202.116 117.042 200.971 114.451C199.825 111.859 199.252 108.935 199.252 105.68C199.252 102.445 199.815 99.5321 200.941 96.9402C202.086 94.3483 203.725 92.2989 205.855 90.792C207.986 89.2851 210.539 88.5317 213.514 88.5317C216.569 88.5317 219.142 89.2751 221.233 90.7619C223.323 92.2487 224.901 94.2881 225.967 96.88C227.052 99.4518 227.595 102.385 227.595 105.68C227.595 108.915 227.062 111.839 225.997 114.451C224.931 117.042 223.364 119.102 221.293 120.629C219.223 122.136 216.69 122.889 213.695 122.889ZM214.147 118.76C216.459 118.76 218.368 118.198 219.876 117.073C221.384 115.947 222.509 114.4 223.253 112.431C223.997 110.442 224.369 108.192 224.369 105.68C224.369 103.129 223.997 100.878 223.253 98.9294C222.509 96.9603 221.384 95.4233 219.876 94.3182C218.388 93.2131 216.509 92.6606 214.238 92.6606C211.906 92.6606 209.976 93.2332 208.448 94.3785C206.921 95.5237 205.785 97.0809 205.041 99.0499C204.318 101.019 203.956 103.229 203.956 105.68C203.956 108.152 204.328 110.382 205.071 112.371C205.835 114.34 206.971 115.897 208.479 117.042C209.986 118.188 211.876 118.76 214.147 118.76ZM224.369 121.985V97.4827H223.886V78.5861H228.349V121.985H224.369Z" fill="black"/>
<path d="M237.411 83.2575V78.2847H241.843V83.2575H237.411ZM237.411 121.985V89.4358H241.843V121.985H237.411Z" fill="black"/>
<path d="M264.481 122.889C261.245 122.889 258.481 122.156 256.189 120.689C253.898 119.222 252.139 117.193 250.913 114.601C249.687 112.009 249.073 109.036 249.073 105.68C249.073 102.265 249.697 99.2709 250.943 96.6991C252.189 94.1273 253.958 92.1282 256.25 90.7016C258.561 89.255 261.305 88.5317 264.481 88.5317C267.738 88.5317 270.512 89.265 272.803 90.7318C275.115 92.1784 276.874 94.1977 278.08 96.7895C279.306 99.3613 279.919 102.325 279.919 105.68C279.919 109.096 279.306 112.1 278.08 114.692C276.854 117.263 275.085 119.273 272.773 120.719C270.461 122.166 267.697 122.889 264.481 122.889ZM264.481 118.64C268.099 118.64 270.793 117.444 272.562 115.053C274.331 112.642 275.215 109.518 275.215 105.68C275.215 101.742 274.321 98.6079 272.532 96.2772C270.763 93.9465 268.079 92.7812 264.481 92.7812C262.049 92.7812 260.039 93.3337 258.451 94.4388C256.883 95.5237 255.707 97.0407 254.923 98.9896C254.159 100.918 253.777 103.149 253.777 105.68C253.777 109.598 254.682 112.743 256.491 115.114C258.3 117.464 260.963 118.64 264.481 118.64Z" fill="black"/>
</svg>
