<svg width="119" height="29" viewBox="0 0 119 29" fill="none" xmlns="http://www.w3.org/2000/svg">
<path d="M16.4857 16.4858C15.2668 17.7047 13.2906 17.7047 12.0717 16.4858C10.8528 15.2669 10.8528 13.2907 12.0717 12.0718C13.2906 10.8529 15.2668 10.8529 16.4857 12.0718C17.7046 13.2907 17.7046 15.2669 16.4857 16.4858Z" fill="#41B3A2"/>
<path d="M12.0717 16.4858C10.8528 15.2669 10.8528 13.2907 12.0717 12.0718C13.2906 10.8529 15.2668 10.8529 16.4857 12.0718C17.7046 13.2907 17.7046 15.2669 16.4857 16.4858C15.2668 17.7047 13.2906 17.7047 12.0717 16.4858Z" fill="#41B3A2"/>
<path d="M10.9069 22.0647C9.68806 23.2836 7.71184 23.2836 6.49294 22.0647C5.27405 20.8458 5.27405 18.8696 6.49294 17.6507C7.71184 16.4318 9.68806 16.4318 10.9069 17.6507C12.1258 18.8696 12.1258 20.8458 10.9069 22.0647Z" fill="#41B3A2"/>
<path d="M6.49295 10.907C5.27406 9.6881 5.27406 7.71188 6.49295 6.49298C7.71185 5.27409 9.68807 5.27409 10.907 6.49298C12.1259 7.71188 12.1259 9.6881 10.907 10.907C9.68807 12.1259 7.71185 12.1259 6.49295 10.907Z" fill="#41B3A2"/>
<path d="M5.32822 27.6435C4.10933 28.8623 2.13311 28.8623 0.914217 27.6435C-0.304678 26.4246 -0.304678 24.4483 0.914217 23.2294C2.13311 22.0105 4.10933 22.0105 5.32822 23.2294C6.54712 24.4483 6.54712 26.4246 5.32822 27.6435Z" fill="#41B3A2"/>
<path d="M0.914228 5.32818C-0.304665 4.10928 -0.304665 2.13307 0.914228 0.914171C2.13312 -0.304724 4.10934 -0.304724 5.32823 0.914171C6.54713 2.13307 6.54713 4.10928 5.32823 5.32818C4.10934 6.54707 2.13312 6.54707 0.914228 5.32818Z" fill="#41B3A2"/>
<path d="M0.914272 16.4858C2.13317 17.7047 4.10939 17.7047 5.32828 16.4858C6.54717 15.2669 6.54717 13.2907 5.32828 12.0718C4.10939 10.8529 2.13317 10.8529 0.914272 12.0718C-0.304621 13.2907 -0.304621 15.2669 0.914272 16.4858Z" fill="#41B3A2"/>
<path d="M25.6408 14.8214L24.8457 12.2386L31.116 5.88086H34.748L25.6408 14.8214ZM23.4001 18.524V5.88086H26.472V18.524H23.4001ZM31.5135 18.524L26.8154 12.3469L28.8934 10.5588L35.0914 18.524H31.5135Z" fill="black"/>
<path d="M36.9384 22.6782L39.1249 17.5306L39.161 19.0117L34.5351 8.93328H37.8058L39.8296 13.7557C39.938 13.9966 40.0404 14.2554 40.1368 14.5324C40.2332 14.8093 40.3055 15.0742 40.3537 15.3271L39.9561 15.5619C40.0284 15.3813 40.1067 15.1585 40.191 14.8936C40.2874 14.6167 40.3898 14.3217 40.4982 14.0086L42.2691 8.93328H45.5578L41.474 18.524L39.8116 22.6782H36.9384Z" fill="black"/>
<path d="M46.9332 22.4976V8.93328H49.6798L49.7882 11.0826L49.2462 10.9201C49.3305 10.5227 49.5353 10.1615 49.8605 9.83636C50.1858 9.51125 50.5954 9.25236 51.0893 9.05971C51.5952 8.85501 52.1253 8.75266 52.6794 8.75266C53.4986 8.75266 54.2274 8.9694 54.8659 9.40288C55.5044 9.82432 56.0043 10.4083 56.3657 11.1549C56.7391 11.8894 56.9259 12.7443 56.9259 13.7196C56.9259 14.6829 56.7391 15.5378 56.3657 16.2844C56.0043 17.0309 55.4983 17.6209 54.8478 18.0544C54.2093 18.4758 53.4745 18.6866 52.6433 18.6866C52.1012 18.6866 51.5832 18.5842 51.0893 18.3795C50.5954 18.1748 50.1798 17.8979 49.8425 17.5487C49.5052 17.1995 49.2823 16.8202 49.1739 16.4108L49.8425 16.1579V22.4976H46.9332ZM51.9386 16.2482C52.3722 16.2482 52.7517 16.1459 53.077 15.9412C53.4022 15.7244 53.6552 15.4294 53.8359 15.0562C54.0166 14.6829 54.107 14.2374 54.107 13.7196C54.107 13.2139 54.0166 12.7744 53.8359 12.4011C53.6552 12.0158 53.4022 11.7208 53.077 11.5161C52.7638 11.2993 52.3843 11.191 51.9386 11.191C51.4928 11.191 51.1074 11.2933 50.7821 11.498C50.4568 11.7027 50.2039 11.9977 50.0232 12.383C49.8425 12.7684 49.7521 13.2139 49.7521 13.7196C49.7521 14.2374 49.8425 14.6829 50.0232 15.0562C50.2039 15.4294 50.4568 15.7244 50.7821 15.9412C51.1074 16.1459 51.4928 16.2482 51.9386 16.2482Z" fill="black"/>
<path d="M63.4162 18.7046C62.3561 18.7046 61.4345 18.4939 60.6515 18.0725C59.8685 17.639 59.2601 17.055 58.8264 16.3205C58.3928 15.5739 58.1759 14.725 58.1759 13.7738C58.1759 13.0393 58.2964 12.365 58.5373 11.7509C58.7783 11.1368 59.1156 10.607 59.5492 10.1615C59.9829 9.7039 60.4949 9.35471 61.0852 9.11389C61.6875 8.86103 62.344 8.7346 63.0548 8.7346C63.7294 8.7346 64.3438 8.85501 64.8979 9.09583C65.4641 9.33665 65.952 9.6738 66.3616 10.1073C66.7712 10.5408 67.0844 11.0525 67.3012 11.6425C67.5181 12.2325 67.6144 12.8767 67.5903 13.5751L67.5723 14.3518H59.9287L59.5131 12.7262H65.2232L64.916 13.0694V12.7082C64.8919 12.4071 64.7955 12.1422 64.6269 11.9134C64.4703 11.6726 64.2594 11.486 63.9944 11.3535C63.7294 11.2211 63.4282 11.1549 63.0909 11.1549C62.6211 11.1549 62.2176 11.2512 61.8802 11.4438C61.555 11.6245 61.308 11.8954 61.1394 12.2566C60.9707 12.6058 60.8864 13.0393 60.8864 13.5571C60.8864 14.0869 60.9948 14.5504 61.2117 14.9478C61.4405 15.3331 61.7658 15.6341 62.1874 15.8509C62.6211 16.0676 63.1331 16.176 63.7234 16.176C64.133 16.176 64.4944 16.1158 64.8076 15.9954C65.1328 15.875 65.4822 15.6703 65.8556 15.3813L67.2109 17.2958C66.8374 17.6209 66.4399 17.8858 66.0182 18.0905C65.5966 18.2952 65.1629 18.4457 64.7172 18.5421C64.2835 18.6504 63.8499 18.7046 63.4162 18.7046Z" fill="black"/>
<path d="M69.4323 18.524V8.93328H72.179L72.3054 12.0579L71.7633 11.4619C71.9079 10.9441 72.1428 10.4806 72.4681 10.0712C72.8054 9.66176 73.1969 9.33665 73.6426 9.09583C74.0883 8.85501 74.5642 8.7346 75.0701 8.7346C75.287 8.7346 75.4857 8.75266 75.6664 8.78878C75.8592 8.82491 76.0339 8.86705 76.1905 8.91521L75.3954 12.1121C75.2629 12.0278 75.0822 11.9616 74.8533 11.9134C74.6365 11.8532 74.4076 11.8231 74.1666 11.8231C73.9016 11.8231 73.6547 11.8713 73.4258 11.9676C73.1969 12.0519 73.0041 12.1783 72.8475 12.3469C72.6909 12.5155 72.5644 12.7142 72.4681 12.943C72.3837 13.1717 72.3416 13.4306 72.3416 13.7196V18.524H69.4323Z" fill="black"/>
<path d="M85.7183 19.4271C84.8088 19.4271 83.9896 19.2766 83.2608 18.9755C82.538 18.6685 81.9387 18.235 81.4628 17.6751C80.993 17.1152 80.6858 16.4499 80.5413 15.6793L81.8965 15.4535C82.1133 16.2964 82.5711 16.9587 83.2698 17.4403C83.9685 17.9159 84.8027 18.1537 85.7725 18.1537C86.411 18.1537 86.9832 18.0544 87.4891 17.8557C87.9951 17.651 88.3926 17.362 88.6817 16.9888C88.9709 16.6155 89.1154 16.173 89.1154 15.6612C89.1154 15.3241 89.0552 15.0381 88.9347 14.8033C88.8143 14.5625 88.6546 14.3638 88.4559 14.2073C88.2571 14.0507 88.0403 13.9213 87.8054 13.8189C87.5704 13.7106 87.3416 13.6233 87.1187 13.5571L83.8209 12.5727C83.4234 12.4583 83.056 12.3138 82.7187 12.1392C82.3814 11.9586 82.0862 11.7449 81.8333 11.498C81.5863 11.2452 81.3936 10.9502 81.255 10.613C81.1165 10.2759 81.0472 9.89054 81.0472 9.45706C81.0472 8.72256 81.24 8.08739 81.6255 7.55156C82.0109 7.01573 82.538 6.60332 83.2066 6.31434C83.8752 6.02535 84.6371 5.88387 85.4924 5.88989C86.3598 5.88989 87.1338 6.04341 87.8144 6.35046C88.501 6.65751 89.0672 7.09701 89.513 7.66896C89.9587 8.23489 90.2538 8.90618 90.3984 9.68283L89.007 9.9357C88.9167 9.36976 88.7088 8.87909 88.3836 8.46367C88.0583 8.04826 87.6427 7.72917 87.1368 7.50641C86.6368 7.27763 86.0857 7.16022 85.4834 7.1542C84.8991 7.1542 84.3781 7.25354 83.9203 7.45222C83.4686 7.64488 83.1102 7.90978 82.8452 8.24693C82.5801 8.58409 82.4476 8.9694 82.4476 9.40288C82.4476 9.84238 82.5681 10.1946 82.809 10.4595C83.056 10.7244 83.3572 10.9321 83.7125 11.0826C84.0739 11.2331 84.4233 11.3565 84.7606 11.4529L87.3084 12.2024C87.5735 12.2747 87.8837 12.38 88.239 12.5185C88.6004 12.651 88.9498 12.8436 89.2871 13.0965C89.6304 13.3433 89.9135 13.6684 90.1364 14.0718C90.3592 14.4752 90.4707 14.9869 90.4707 15.607C90.4707 16.2091 90.3502 16.7479 90.1093 17.2236C89.8744 17.6992 89.5401 18.0996 89.1064 18.4247C88.6787 18.7498 88.1758 18.9966 87.5976 19.1652C87.0253 19.3398 86.3989 19.4271 85.7183 19.4271Z" fill="black"/>
<path d="M99.3829 19.1562V14.1802C99.3829 13.6383 99.3317 13.1416 99.2293 12.6901C99.1269 12.2325 98.9613 11.8352 98.7324 11.498C98.5095 11.1549 98.2174 10.89 97.856 10.7033C97.5006 10.5167 97.067 10.4234 96.555 10.4234C96.0852 10.4234 95.6696 10.5046 95.3082 10.6672C94.9528 10.8297 94.6516 11.0645 94.4047 11.3716C94.1637 11.6726 93.98 12.0399 93.8535 12.4734C93.7271 12.9068 93.6638 13.4005 93.6638 13.9544L92.7242 13.7467C92.7242 12.7473 92.8988 11.9074 93.2482 11.2271C93.5976 10.5468 94.0794 10.032 94.6938 9.68283C95.3082 9.33364 96.0129 9.15905 96.808 9.15905C97.3922 9.15905 97.9012 9.24935 98.3349 9.42997C98.7746 9.61059 99.145 9.85442 99.4462 10.1615C99.7534 10.4685 100 10.8207 100.187 11.2181C100.374 11.6094 100.509 12.0278 100.594 12.4734C100.678 12.9129 100.72 13.3524 100.72 13.7919V19.1562H99.3829ZM92.3266 19.1562V6.15178H93.5283V13.4938H93.6638V19.1562H92.3266Z" fill="black"/>
<path d="M103.245 7.55156V6.06148H104.574V7.55156H103.245ZM103.245 19.1562V9.40288H104.574V19.1562H103.245Z" fill="black"/>
<path d="M108.249 19.1562V8.68041C108.249 8.42755 108.261 8.1777 108.285 7.93086C108.315 7.68401 108.372 7.44921 108.457 7.22645C108.541 6.99767 108.674 6.78695 108.854 6.59429C109.053 6.37755 109.27 6.22102 109.505 6.12469C109.74 6.02234 109.984 5.95612 110.237 5.92601C110.496 5.89591 110.749 5.88086 110.996 5.88086H112.242V7.00068H111.086C110.58 7.00068 110.2 7.1241 109.947 7.37094C109.701 7.61779 109.577 8.00611 109.577 8.53592V19.1562H108.249ZM106.559 10.5408V9.40288H112.242V10.5408H106.559Z" fill="black"/>
<path d="M119 19.1562C118.452 19.2705 117.91 19.3157 117.374 19.2916C116.844 19.2675 116.368 19.1532 115.947 18.9485C115.531 18.7438 115.215 18.4247 114.998 17.9912C114.823 17.63 114.727 17.2657 114.709 16.8985C114.697 16.5252 114.691 16.1007 114.691 15.6251V6.69363H116.01V15.5709C116.01 15.9803 116.013 16.3235 116.019 16.6004C116.031 16.8714 116.094 17.1122 116.209 17.3229C116.425 17.7263 116.769 17.9671 117.239 18.0454C117.714 18.1236 118.302 18.1056 119 17.9912V19.1562ZM112.604 10.5408V9.40288H119V10.5408H112.604Z" fill="black"/>
</svg>
