<svg width="135" height="29" viewBox="0 0 135 29" fill="none" xmlns="http://www.w3.org/2000/svg">
<path d="M0.905504 16.3454C2.11284 17.554 4.07033 17.554 5.27766 16.3454C6.485 15.1369 6.485 13.1775 5.27766 11.969C4.07033 10.7605 2.11284 10.7605 0.905504 11.969C-0.301835 13.1775 -0.301835 15.1369 0.905504 16.3454Z" fill="#7367F0"/>
<path d="M5.27766 16.3454C6.485 15.1369 6.485 13.1775 5.27766 11.969C4.07033 10.7605 2.11284 10.7605 0.905504 11.969C-0.301835 13.1775 -0.301835 15.1369 0.905504 16.3454C2.11284 17.554 4.07033 17.554 5.27766 16.3454Z" fill="#7367F0"/>
<path d="M6.4314 21.8769C7.63873 23.0854 9.59622 23.0854 10.8036 21.8769C12.0109 20.6684 12.0109 18.709 10.8036 17.5005C9.59622 16.2919 7.63873 16.2919 6.4314 17.5005C5.22406 18.709 5.22406 20.6684 6.4314 21.8769Z" fill="#7367F0"/>
<path d="M10.8035 10.8141C12.0109 9.60561 12.0109 7.64621 10.8035 6.4377C9.59621 5.22918 7.63872 5.22918 6.43139 6.4377C5.22405 7.64621 5.22405 9.60561 6.43139 10.8141C7.63872 12.0226 9.59621 12.0226 10.8035 10.8141Z" fill="#7367F0"/>
<path d="M11.9572 27.4081C13.1646 28.6166 15.1221 28.6166 16.3294 27.4081C17.5367 26.1996 17.5367 24.2402 16.3294 23.0317C15.1221 21.8231 13.1646 21.8231 11.9572 23.0317C10.7499 24.2402 10.7499 26.1996 11.9572 27.4081Z" fill="#7367F0"/>
<path d="M16.3294 5.28281C17.5367 4.0743 17.5367 2.1149 16.3294 0.906387C15.122 -0.302129 13.1646 -0.302129 11.9572 0.906387C10.7499 2.1149 10.7499 4.0743 11.9572 5.28281C13.1646 6.49133 15.122 6.49133 16.3294 5.28281Z" fill="#7367F0"/>
<path d="M16.3293 16.3454C15.122 17.5539 13.1645 17.5539 11.9572 16.3454C10.7498 15.1369 10.7498 13.1775 11.9572 11.969C13.1645 10.7605 15.122 10.7605 16.3293 11.969C17.5367 13.1775 17.5367 15.1369 16.3293 16.3454Z" fill="#7367F0"/>
<path d="M25.4817 16.7445L24.6845 14.1546L30.972 7.7793H34.6141L25.4817 16.7445ZM23.2349 20.4574V7.7793H26.3152V20.4574H23.2349ZM31.3707 20.4574L26.6595 14.2632L28.7433 12.4702L34.9584 20.4574H31.3707Z" fill="black"/>
<path d="M36.8106 24.6231L39.0031 19.4613L39.0394 20.9464L34.4007 10.8402H37.6804L39.7098 15.676C39.8185 15.9174 39.9212 16.177 40.0178 16.4548C40.1145 16.7325 40.1869 16.9981 40.2353 17.2517L39.8366 17.4871C39.9091 17.306 39.9876 17.0826 40.0722 16.817C40.1688 16.5393 40.2715 16.2434 40.3802 15.9295L42.156 10.8402H45.4538L41.3587 20.4574L39.6917 24.6231H36.8106Z" fill="black"/>
<path d="M46.833 24.442V10.8402H49.5872L49.696 12.9954L49.1524 12.8324C49.2369 12.434 49.4423 12.0717 49.7684 11.7457C50.0946 11.4197 50.5053 11.1601 51.0006 10.9669C51.5079 10.7617 52.0395 10.659 52.5951 10.659C53.4166 10.659 54.1474 10.8764 54.7876 11.3111C55.4279 11.7337 55.9292 12.3193 56.2916 13.0679C56.6661 13.8044 56.8533 14.6617 56.8533 15.6397C56.8533 16.6057 56.6661 17.463 56.2916 18.2116C55.9292 18.9602 55.4218 19.5518 54.7695 19.9865C54.1293 20.4091 53.3924 20.6204 52.5589 20.6204C52.0153 20.6204 51.4959 20.5178 51.0006 20.3125C50.5053 20.1073 50.0886 19.8295 49.7503 19.4794C49.4121 19.1292 49.1886 18.7489 49.0799 18.3384L49.7503 18.0848V24.442H46.833ZM51.8522 18.1754C52.2871 18.1754 52.6676 18.0727 52.9938 17.8675C53.3199 17.6501 53.5736 17.3543 53.7548 16.98C53.936 16.6057 54.0266 16.1589 54.0266 15.6397C54.0266 15.1326 53.936 14.6919 53.7548 14.3176C53.5736 13.9312 53.3199 13.6354 52.9938 13.4301C52.6797 13.2128 52.2992 13.1041 51.8522 13.1041C51.4053 13.1041 51.0187 13.2067 50.6926 13.412C50.3664 13.6173 50.1127 13.9131 49.9315 14.2995C49.7503 14.6859 49.6597 15.1326 49.6597 15.6397C49.6597 16.1589 49.7503 16.6057 49.9315 16.98C50.1127 17.3543 50.3664 17.6501 50.6926 17.8675C51.0187 18.0727 51.4053 18.1754 51.8522 18.1754Z" fill="black"/>
<path d="M63.3616 20.6385C62.2986 20.6385 61.3744 20.4272 60.5892 20.0046C59.8041 19.5699 59.194 18.9843 58.7591 18.2478C58.3243 17.4992 58.1068 16.6479 58.1068 15.6941C58.1068 14.9575 58.2276 14.2814 58.4692 13.6656C58.7108 13.0498 59.0491 12.5185 59.4839 12.0717C59.9188 11.6129 60.4322 11.2628 61.0241 11.0213C61.6281 10.7677 62.2865 10.6409 62.9992 10.6409C63.6757 10.6409 64.2917 10.7617 64.8474 11.0032C65.4152 11.2446 65.9044 11.5827 66.3151 12.0174C66.7258 12.4521 67.0399 12.9653 67.2574 13.5569C67.4748 14.1485 67.5714 14.7945 67.5473 15.4948L67.5292 16.2736H59.8645L59.4477 14.6436H65.1736L64.8655 14.9877V14.6255C64.8414 14.3236 64.7447 14.058 64.5756 13.8286C64.4186 13.5871 64.2072 13.3999 63.9414 13.2671C63.6757 13.1343 63.3737 13.0679 63.0354 13.0679C62.5643 13.0679 62.1596 13.1645 61.8214 13.3577C61.4952 13.5388 61.2476 13.8105 61.0785 14.1727C60.9094 14.5228 60.8248 14.9575 60.8248 15.4767C60.8248 16.008 60.9335 16.4729 61.151 16.8713C61.3805 17.2577 61.7066 17.5596 62.1294 17.7769C62.5643 17.9942 63.0777 18.1029 63.6696 18.1029C64.0803 18.1029 64.4427 18.0425 64.7568 17.9218C65.083 17.801 65.4333 17.5958 65.8078 17.306L67.1668 19.2258C66.7923 19.5518 66.3936 19.8175 65.9709 20.0227C65.5481 20.228 65.1132 20.3789 64.6662 20.4755C64.2313 20.5842 63.7965 20.6385 63.3616 20.6385Z" fill="black"/>
<path d="M69.3944 20.4574V10.8402H72.1486L72.2754 13.9735L71.7318 13.3758C71.8768 12.8566 72.1124 12.3917 72.4385 11.9812C72.7767 11.5707 73.1693 11.2446 73.6163 11.0032C74.0633 10.7617 74.5404 10.6409 75.0478 10.6409C75.2652 10.6409 75.4645 10.659 75.6457 10.6953C75.839 10.7315 76.0142 10.7737 76.1712 10.822L75.3739 14.0278C75.2411 13.9433 75.0599 13.8769 74.8303 13.8286C74.6129 13.7682 74.3834 13.738 74.1418 13.738C73.876 13.738 73.6284 13.7863 73.3989 13.8829C73.1693 13.9674 72.9761 14.0942 72.819 14.2632C72.662 14.4323 72.5352 14.6315 72.4385 14.8609C72.354 15.0903 72.3117 15.3499 72.3117 15.6397V20.4574H69.3944Z" fill="black"/>
<path d="M85.78 21.3541C84.8679 21.3541 84.0465 21.2032 83.3157 20.9013C82.5909 20.5934 81.9899 20.1588 81.5127 19.5973C81.0416 19.0358 80.7336 18.3687 80.5886 17.596L81.9476 17.3696C82.1651 18.2148 82.6241 18.8789 83.3247 19.3618C84.0254 19.8388 84.8619 20.0772 85.8343 20.0772C86.4746 20.0772 87.0484 19.9776 87.5557 19.7784C88.0631 19.5731 88.4617 19.2834 88.7516 18.909C89.0415 18.5347 89.1865 18.091 89.1865 17.5778C89.1865 17.2398 89.1261 16.953 89.0053 16.7175C88.8845 16.4761 88.7244 16.2768 88.5251 16.1199C88.3258 15.9629 88.1084 15.8331 87.8728 15.7305C87.6372 15.6218 87.4077 15.5343 87.1843 15.4678L83.8774 14.4808C83.4787 14.3661 83.1103 14.2212 82.7721 14.0461C82.4338 13.865 82.1379 13.6507 81.8842 13.4031C81.6366 13.1496 81.4433 12.8537 81.3044 12.5157C81.1654 12.1776 81.096 11.7912 81.096 11.3565C81.096 10.62 81.2893 9.98306 81.6758 9.44575C82.0624 8.90844 82.5909 8.49489 83.2613 8.2051C83.9317 7.91532 84.6958 7.77344 85.5535 7.77948C86.4232 7.77948 87.1994 7.93343 87.8819 8.24133C88.5704 8.54922 89.1382 8.98994 89.5851 9.56347C90.0321 10.131 90.328 10.8041 90.473 11.5829L89.0778 11.8365C88.9872 11.269 88.7788 10.7769 88.4526 10.3604C88.1265 9.94382 87.7097 9.62385 87.2024 9.40047C86.7011 9.17106 86.1484 9.05333 85.5444 9.04729C84.9585 9.04729 84.4361 9.1469 83.977 9.34613C83.524 9.53932 83.1647 9.80496 82.8989 10.143C82.6331 10.4811 82.5003 10.8675 82.5003 11.3022C82.5003 11.7429 82.6211 12.0961 82.8627 12.3617C83.1103 12.6274 83.4123 12.8356 83.7687 12.9866C84.1311 13.1375 84.4814 13.2613 84.8196 13.3579L87.3745 14.1095C87.6403 14.1819 87.9513 14.2876 88.3077 14.4264C88.6701 14.5593 89.0204 14.7524 89.3586 15.006C89.7029 15.2535 89.9868 15.5795 90.2103 15.984C90.4337 16.3885 90.5455 16.9017 90.5455 17.5235C90.5455 18.1272 90.4247 18.6676 90.1831 19.1445C89.9475 19.6214 89.6123 20.0229 89.1774 20.3489C88.7486 20.6749 88.2443 20.9225 87.6644 21.0915C87.0906 21.2666 86.4625 21.3541 85.78 21.3541Z" fill="black"/>
<path d="M97.7429 21.0824C97.1933 21.1971 96.6497 21.2424 96.1121 21.2183C95.5806 21.1941 95.1034 21.0794 94.6806 20.8742C94.2639 20.6689 93.9468 20.3489 93.7293 19.9142C93.5542 19.552 93.4575 19.1868 93.4394 18.8185C93.4273 18.4442 93.4213 18.0186 93.4213 17.5416V8.58545H94.7441V17.4873C94.7441 17.8978 94.7471 18.2419 94.7531 18.5197C94.7652 18.7913 94.8286 19.0328 94.9434 19.2441C95.1608 19.6486 95.5051 19.8901 95.9762 19.9686C96.4534 20.0471 97.0423 20.029 97.7429 19.9142V21.0824ZM91.3285 12.4432V11.3022H97.7429V12.4432H91.3285Z" fill="black"/>
<path d="M103.412 21.3269C102.827 21.3269 102.313 21.2364 101.872 21.0553C101.437 20.8742 101.066 20.6297 100.758 20.3218C100.456 20.0139 100.211 19.6637 100.024 19.2713C99.8368 18.8728 99.7009 18.4532 99.6163 18.0125C99.5318 17.5658 99.4895 17.122 99.4895 16.6813V11.3022H100.83V16.2919C100.83 16.8292 100.882 17.3273 100.984 17.7861C101.087 18.245 101.25 18.6464 101.474 18.9906C101.703 19.3286 101.996 19.5913 102.352 19.7784C102.715 19.9656 103.153 20.0591 103.666 20.0591C104.137 20.0591 104.551 19.9776 104.907 19.8146C105.27 19.6516 105.572 19.4192 105.813 19.1173C106.061 18.8094 106.248 18.4381 106.375 18.0035C106.502 17.5628 106.565 17.0677 106.565 16.5183L107.508 16.7266C107.508 17.7288 107.332 18.571 106.982 19.2532C106.632 19.9354 106.149 20.4516 105.532 20.8017C104.916 21.1519 104.21 21.3269 103.412 21.3269ZM106.701 21.0824V18.6736H106.565V11.3022H107.897V21.0824H106.701Z" fill="black"/>
<path d="M114.225 21.3541C113.313 21.3541 112.534 21.1277 111.888 20.6749C111.242 20.2161 110.746 19.5973 110.402 18.8185C110.058 18.0397 109.886 17.1613 109.886 16.1833C109.886 15.2113 110.055 14.3359 110.393 13.5571C110.737 12.7783 111.23 12.1625 111.87 11.7097C112.51 11.2569 113.277 11.0305 114.171 11.0305C115.089 11.0305 115.862 11.2539 116.49 11.7006C117.119 12.1474 117.593 12.7602 117.913 13.539C118.239 14.3117 118.402 15.1932 118.402 16.1833C118.402 17.1552 118.242 18.0337 117.922 18.8185C117.602 19.5973 117.131 20.2161 116.509 20.6749C115.886 21.1277 115.125 21.3541 114.225 21.3541ZM114.361 20.1135C115.056 20.1135 115.63 19.9444 116.083 19.6063C116.536 19.2683 116.874 18.8034 117.097 18.2118C117.321 17.6141 117.433 16.9379 117.433 16.1833C117.433 15.4165 117.321 14.7404 117.097 14.1548C116.874 13.5631 116.536 13.1013 116.083 12.7692C115.636 12.4372 115.071 12.2712 114.389 12.2712C113.688 12.2712 113.108 12.4432 112.649 12.7873C112.19 13.1315 111.849 13.5993 111.625 14.191C111.408 14.7826 111.299 15.4467 111.299 16.1833C111.299 16.9258 111.411 17.596 111.634 18.1936C111.864 18.7853 112.205 19.2532 112.658 19.5973C113.111 19.9414 113.679 20.1135 114.361 20.1135ZM117.433 21.0824V13.7201H117.288V8.0421H118.629V21.0824H117.433Z" fill="black"/>
<path d="M121.352 9.44575V7.95154H122.683V9.44575H121.352ZM121.352 21.0824V11.3022H122.683V21.0824H121.352Z" fill="black"/>
<path d="M129.486 21.3541C128.513 21.3541 127.683 21.1338 126.994 20.693C126.305 20.2523 125.777 19.6426 125.409 18.8638C125.04 18.085 124.856 17.1915 124.856 16.1833C124.856 15.1569 125.043 14.2574 125.418 13.4846C125.792 12.7119 126.324 12.1112 127.012 11.6825C127.707 11.2479 128.531 11.0305 129.486 11.0305C130.464 11.0305 131.297 11.2509 131.986 11.6916C132.681 12.1263 133.209 12.733 133.572 13.5118C133.94 14.2846 134.124 15.175 134.124 16.1833C134.124 17.2096 133.94 18.1121 133.572 18.8909C133.203 19.6637 132.672 20.2674 131.977 20.7021C131.282 21.1368 130.452 21.3541 129.486 21.3541ZM129.486 20.0772C130.573 20.0772 131.382 19.718 131.914 18.9996C132.445 18.2751 132.711 17.3364 132.711 16.1833C132.711 15 132.442 14.0582 131.904 13.3579C131.373 12.6575 130.567 12.3074 129.486 12.3074C128.755 12.3074 128.151 12.4734 127.674 12.8054C127.202 13.1315 126.849 13.5873 126.614 14.1729C126.384 14.7524 126.269 15.4226 126.269 16.1833C126.269 17.3605 126.541 18.3053 127.085 19.0177C127.628 19.7241 128.429 20.0772 129.486 20.0772Z" fill="black"/>
</svg>
