<svg width="161" height="29" viewBox="0 0 161 29" fill="none" xmlns="http://www.w3.org/2000/svg">
<path d="M0.513171 9.25432C1.1974 9.93854 2.30675 9.93854 2.99098 9.25432C3.6752 8.57009 3.6752 7.46074 2.99098 6.77651C2.30675 6.09228 1.1974 6.09228 0.513171 6.77651C-0.171057 7.46074 -0.171057 8.57009 0.513171 9.25432Z" fill="#FB856E"/>
<path d="M2.99098 9.25432C3.6752 8.57009 3.6752 7.46074 2.99098 6.77651C2.30675 6.09228 1.1974 6.09228 0.513171 6.77651C-0.171057 7.46074 -0.171057 8.57009 0.513171 9.25432C1.1974 9.93854 2.30675 9.93854 2.99098 9.25432Z" fill="#FB856E"/>
<path d="M3.64484 12.3861C4.32907 13.0703 5.43842 13.0703 6.12265 12.3861C6.80687 11.7018 6.80687 10.5925 6.12265 9.90825C5.43842 9.22402 4.32907 9.22402 3.64484 9.90825C2.96061 10.5925 2.96061 11.7018 3.64484 12.3861Z" fill="#FB856E"/>
<path d="M6.12264 6.12264C6.80687 5.43842 6.80687 4.32906 6.12264 3.64484C5.43842 2.96061 4.32906 2.96061 3.64484 3.64484C2.96061 4.32906 2.96061 5.43842 3.64484 6.12264C4.32906 6.80687 5.43842 6.80687 6.12264 6.12264Z" fill="#FB856E"/>
<path d="M6.77645 15.5177C7.46067 16.2019 8.57003 16.2019 9.25425 15.5177C9.93848 14.8334 9.93848 13.7241 9.25425 13.0399C8.57003 12.3556 7.46067 12.3556 6.77645 13.0399C6.09222 13.7241 6.09222 14.8334 6.77645 15.5177Z" fill="#FB856E"/>
<path d="M9.25425 2.99098C9.93848 2.30675 9.93848 1.1974 9.25425 0.513171C8.57002 -0.171057 7.46067 -0.171057 6.77644 0.513171C6.09221 1.1974 6.09221 2.30675 6.77644 2.99098C7.46067 3.6752 8.57002 3.6752 9.25425 2.99098Z" fill="#FB856E"/>
<path d="M9.25425 9.25431C8.57002 9.93854 7.46067 9.93854 6.77644 9.25431C6.09221 8.57008 6.09221 7.46073 6.77644 6.7765C7.46067 6.09228 8.57002 6.09228 9.25425 6.7765C9.93847 7.46073 9.93847 8.57008 9.25425 9.25431Z" fill="#FB856E"/>
<path d="M15.4885 21.7876C14.8043 22.4718 13.6949 22.4718 13.0107 21.7876C12.3265 21.1034 12.3265 19.994 13.0107 19.3098C13.6949 18.6256 14.8043 18.6256 15.4885 19.3098C16.1727 19.994 16.1727 21.1034 15.4885 21.7876Z" fill="#FB856E"/>
<path d="M13.0107 21.7876C12.3265 21.1034 12.3265 19.994 13.0107 19.3098C13.6949 18.6256 14.8043 18.6256 15.4885 19.3098C16.1727 19.994 16.1727 21.1034 15.4885 21.7876C14.8043 22.4718 13.6949 22.4718 13.0107 21.7876Z" fill="#FB856E"/>
<path d="M12.3568 24.9193C11.6726 25.6036 10.5632 25.6036 9.87901 24.9193C9.19478 24.2351 9.19478 23.1258 9.87901 22.4415C10.5632 21.7573 11.6726 21.7573 12.3568 22.4415C13.041 23.1258 13.041 24.2351 12.3568 24.9193Z" fill="#FB856E"/>
<path d="M9.87901 18.6559C9.19479 17.9717 9.19479 16.8624 9.87901 16.1781C10.5632 15.4939 11.6726 15.4939 12.3568 16.1781C13.041 16.8624 13.041 17.9717 12.3568 18.6559C11.6726 19.3402 10.5632 19.3402 9.87901 18.6559Z" fill="#FB856E"/>
<path d="M9.22521 28.051C8.54098 28.7352 7.43163 28.7352 6.7474 28.051C6.06318 27.3667 6.06318 26.2574 6.7474 25.5731C7.43163 24.8889 8.54098 24.8889 9.22521 25.5731C9.90944 26.2574 9.90944 27.3667 9.22521 28.051Z" fill="#FB856E"/>
<path d="M6.74741 15.5243C6.06318 14.84 6.06318 13.7307 6.74741 13.0465C7.43164 12.3622 8.54099 12.3622 9.22522 13.0465C9.90944 13.7307 9.90944 14.84 9.22522 15.5243C8.54099 16.2085 7.43164 16.2085 6.74741 15.5243Z" fill="#FB856E"/>
<path d="M6.74741 21.7876C7.43164 22.4718 8.54099 22.4718 9.22522 21.7876C9.90945 21.1034 9.90945 19.994 9.22522 19.3098C8.54099 18.6256 7.43164 18.6256 6.74741 19.3098C6.06318 19.994 6.06318 21.1034 6.74741 21.7876Z" fill="#FB856E"/>
<path d="M24.131 14.7973L23.3754 12.341L29.334 6.29492H32.7855L24.131 14.7973ZM22.0017 18.3185V6.29492H24.9209V18.3185H22.0017ZM29.7118 18.3185L25.2472 12.4441L27.2219 10.7436L33.1118 18.3185H29.7118Z" fill="black"/>
<path d="M34.867 22.2691L36.9448 17.3738L36.9791 18.7822L32.5832 9.19775H35.6913L37.6145 13.7839C37.7175 14.0129 37.8148 14.2591 37.9064 14.5225C37.998 14.7858 38.0667 15.0378 38.1125 15.2782L37.7347 15.5015C37.8034 15.3298 37.8778 15.1179 37.9579 14.866C38.0495 14.6026 38.1468 14.3221 38.2499 14.0243L39.9327 9.19775H43.0579L39.1771 18.3185L37.5973 22.2691H34.867Z" fill="black"/>
<path d="M44.365 22.0973V9.19775H46.9751L47.0781 11.2417L46.5629 11.0872C46.6431 10.7093 46.8377 10.3657 47.1468 10.0566C47.4559 9.7474 47.8451 9.5012 48.3145 9.31798C48.7953 9.12332 49.299 9.02598 49.8256 9.02598C50.604 9.02598 51.2966 9.2321 51.9033 9.64434C52.5101 10.0451 52.9851 10.6005 53.3286 11.3105C53.6835 12.009 53.8609 12.822 53.8609 13.7495C53.8609 14.6656 53.6835 15.4786 53.3286 16.1886C52.9851 16.8985 52.5043 17.4596 51.8862 17.8719C51.2794 18.2727 50.5811 18.4731 49.7912 18.4731C49.2761 18.4731 48.7838 18.3757 48.3145 18.1811C47.8451 17.9864 47.4501 17.723 47.1296 17.3909C46.8091 17.0589 46.5973 16.6981 46.4943 16.3088L47.1296 16.0683V22.0973H44.365ZM49.1215 16.1542C49.5336 16.1542 49.8942 16.0569 50.2033 15.8622C50.5124 15.6561 50.7528 15.3756 50.9245 15.0206C51.0963 14.6656 51.1821 14.2419 51.1821 13.7495C51.1821 13.2686 51.0963 12.8506 50.9245 12.4956C50.7528 12.1292 50.5124 11.8487 50.2033 11.654C49.9057 11.4479 49.5451 11.3448 49.1215 11.3448C48.698 11.3448 48.3316 11.4421 48.0225 11.6368C47.7134 11.8315 47.473 12.112 47.3013 12.4785C47.1296 12.8449 47.0438 13.2686 47.0438 13.7495C47.0438 14.2419 47.1296 14.6656 47.3013 15.0206C47.473 15.3756 47.7134 15.6561 48.0225 15.8622C48.3316 16.0569 48.698 16.1542 49.1215 16.1542Z" fill="black"/>
<path d="M60.0286 18.4902C59.0212 18.4902 58.1454 18.2898 57.4013 17.889C56.6572 17.4768 56.0791 16.9214 55.667 16.2229C55.2549 15.513 55.0488 14.7057 55.0488 13.801C55.0488 13.1025 55.1633 12.4613 55.3923 11.8773C55.6212 11.2933 55.9418 10.7894 56.3539 10.3657C56.766 9.93061 57.2525 9.59853 57.8135 9.36951C58.3859 9.12904 59.0098 9.00881 59.6852 9.00881C60.3262 9.00881 60.9101 9.12332 61.4367 9.35234C61.9747 9.58136 62.4384 9.90198 62.8276 10.3142C63.2168 10.7265 63.5145 11.2131 63.7205 11.7742C63.9266 12.3353 64.0182 12.9479 63.9953 13.6121L63.9781 14.3507H56.7145L56.3195 12.8048H61.7458L61.4539 13.1312V12.7876C61.431 12.5014 61.3394 12.2494 61.1791 12.0319C61.0303 11.8028 60.83 11.6254 60.5781 11.4994C60.3262 11.3734 60.0401 11.3105 59.7195 11.3105C59.2731 11.3105 58.8896 11.4021 58.569 11.5853C58.2599 11.757 58.0252 12.0147 57.865 12.3582C57.7047 12.6903 57.6246 13.1025 57.6246 13.5949C57.6246 14.0988 57.7276 14.5396 57.9337 14.9175C58.1512 15.2839 58.4603 15.5702 58.8609 15.7763C59.2731 15.9825 59.7596 16.0855 60.3205 16.0855C60.7098 16.0855 61.0532 16.0283 61.3508 15.9138C61.6599 15.7992 61.9919 15.6046 62.3468 15.3298L63.6347 17.1505C63.2798 17.4596 62.902 17.7116 62.5013 17.9062C62.1007 18.1009 61.6885 18.244 61.265 18.3356C60.8528 18.4387 60.4407 18.4902 60.0286 18.4902Z" fill="black"/>
<path d="M65.7457 18.3185V9.19775H68.3558L68.476 12.1693L67.9608 11.6025C68.0982 11.1101 68.3214 10.6692 68.6305 10.2799C68.9511 9.89053 69.3231 9.58136 69.7467 9.35234C70.1703 9.12332 70.6225 9.00881 71.1033 9.00881C71.3093 9.00881 71.4982 9.02598 71.6699 9.06034C71.8531 9.09469 72.0191 9.13477 72.1679 9.18057L71.4123 12.2208C71.2864 12.1407 71.1147 12.0777 70.8972 12.0319C70.6911 11.9746 70.4736 11.946 70.2447 11.946C69.9928 11.946 69.7581 11.9918 69.5406 12.0834C69.3231 12.1636 69.14 12.2838 68.9911 12.4441C68.8423 12.6044 68.7221 12.7934 68.6305 13.0109C68.5504 13.2285 68.5103 13.4747 68.5103 13.7495V18.3185H65.7457Z" fill="black"/>
<path d="M76.3606 20.3365V7.96875H80.1128C80.2445 7.96875 80.4677 7.97161 80.7825 7.97734C81.1031 7.98306 81.4093 8.00597 81.7013 8.04605C82.64 8.17774 83.4243 8.52701 84.0539 9.09387C84.6836 9.66072 85.1558 10.3822 85.4707 11.2582C85.7855 12.1343 85.9429 13.0991 85.9429 14.1526C85.9429 15.2062 85.7855 16.171 85.4707 17.047C85.1558 17.9231 84.6836 18.6445 84.0539 19.2114C83.4243 19.7782 82.64 20.1275 81.7013 20.2592C81.4151 20.2935 81.1088 20.3164 80.7825 20.3279C80.4563 20.3336 80.233 20.3365 80.1128 20.3365H76.3606ZM77.6657 19.1255H80.1128C80.3475 19.1255 80.5994 19.1198 80.8684 19.1083C81.1432 19.0911 81.3779 19.0625 81.5725 19.0224C82.2937 18.8964 82.8747 18.6044 83.3155 18.1464C83.762 17.6883 84.0883 17.1157 84.2943 16.4286C84.5004 15.7358 84.6034 14.9771 84.6034 14.1526C84.6034 13.3224 84.5004 12.5608 84.2943 11.868C84.0883 11.1752 83.762 10.6026 83.3155 10.1503C82.869 9.69794 82.288 9.40879 81.5725 9.28282C81.3779 9.24274 81.1403 9.21697 80.8598 9.20552C80.5851 9.18835 80.336 9.17976 80.1128 9.17976H77.6657V19.1255Z" fill="black"/>
<path d="M90.5516 20.5941C89.8532 20.5941 89.2665 20.4682 88.7914 20.2162C88.322 19.9643 87.97 19.6294 87.7353 19.2114C87.5006 18.7934 87.3832 18.3382 87.3832 17.8458C87.3832 17.3419 87.4834 16.9125 87.6838 16.5575C87.8898 16.1967 88.1675 15.9019 88.5166 15.6728C88.8715 15.4438 89.2808 15.2692 89.7445 15.1489C90.2139 15.0344 90.7319 14.9342 91.2986 14.8483C91.871 14.7567 92.4291 14.6794 92.9729 14.6164C93.5224 14.5477 94.0033 14.4819 94.4154 14.4189L93.9689 14.6937C93.9861 13.7776 93.8087 13.0991 93.4366 12.6582C93.0645 12.2173 92.4177 11.9969 91.4961 11.9969C90.8607 11.9969 90.3226 12.14 89.8819 12.4263C89.4468 12.7126 89.1406 13.1649 88.9631 13.7833L87.7353 13.4226C87.9471 12.5923 88.3735 11.9482 89.0146 11.4901C89.6558 11.0321 90.4886 10.803 91.5133 10.803C92.3604 10.803 93.0788 10.9633 93.6684 11.284C94.2637 11.5989 94.6845 12.057 94.9306 12.6582C95.0451 12.9273 95.1195 13.2279 95.1538 13.56C95.1882 13.8921 95.2054 14.2299 95.2054 14.5735V20.3365H94.0806V18.0089L94.4068 18.1464C94.092 18.9423 93.6026 19.5492 92.9386 19.9672C92.2746 20.3852 91.4789 20.5941 90.5516 20.5941ZM90.6976 19.5034C91.2871 19.5034 91.8023 19.3975 92.2431 19.1856C92.6839 18.9737 93.0388 18.6846 93.3078 18.3181C93.5768 17.946 93.7514 17.528 93.8316 17.0642C93.9002 16.7664 93.9375 16.4401 93.9432 16.0851C93.9489 15.7244 93.9518 15.4552 93.9518 15.2777L94.4326 15.5268C94.0033 15.5841 93.5368 15.6413 93.033 15.6986C92.535 15.7558 92.0427 15.8217 91.5562 15.8961C91.0754 15.9706 90.6403 16.0593 90.2511 16.1624C89.9878 16.2368 89.733 16.3427 89.4869 16.4802C89.2407 16.6119 89.0375 16.7894 88.8773 17.0127C88.7227 17.236 88.6454 17.5137 88.6454 17.8458C88.6454 18.1149 88.7113 18.3754 88.8429 18.6273C88.9803 18.8793 89.1978 19.0883 89.4955 19.2543C89.7989 19.4204 90.1996 19.5034 90.6976 19.5034Z" fill="black"/>
<path d="M100.901 20.5856C99.8133 20.5856 98.9175 20.3508 98.2134 19.8813C97.515 19.4118 97.0857 18.759 96.9254 17.9231L98.2134 17.7083C98.3508 18.2351 98.6627 18.656 99.1493 18.9709C99.6416 19.2801 100.248 19.4347 100.97 19.4347C101.674 19.4347 102.229 19.2887 102.635 18.9967C103.042 18.6989 103.245 18.2952 103.245 17.7856C103.245 17.4994 103.179 17.2675 103.047 17.09C102.922 16.9067 102.661 16.7378 102.266 16.5832C101.871 16.4286 101.282 16.2454 100.497 16.0335C99.6559 15.8045 98.9976 15.5755 98.5225 15.3464C98.0474 15.1174 97.7097 14.854 97.5093 14.5563C97.309 14.2528 97.2088 13.8835 97.2088 13.4483C97.2088 12.9216 97.3576 12.4606 97.6553 12.0656C97.9529 11.6648 98.3651 11.3556 98.8917 11.138C99.4183 10.9147 100.031 10.803 100.729 10.803C101.428 10.803 102.051 10.9175 102.601 11.1466C103.156 11.3699 103.603 11.6848 103.94 12.0913C104.278 12.4979 104.479 12.9702 104.541 13.5085L103.254 13.7404C103.168 13.1964 102.896 12.767 102.438 12.4521C101.986 12.1314 101.41 11.9654 100.712 11.9539C100.054 11.9367 99.5185 12.0627 99.1064 12.3318C98.6942 12.5952 98.4881 12.9473 98.4881 13.3882C98.4881 13.6344 98.5626 13.8463 98.7114 14.0238C98.8602 14.1956 99.1293 14.3587 99.5185 14.5133C99.9135 14.6679 100.474 14.8369 101.201 15.0201C102.054 15.2377 102.724 15.4667 103.211 15.7072C103.697 15.9477 104.043 16.2311 104.25 16.5575C104.456 16.8838 104.559 17.2875 104.559 17.7685C104.559 18.6445 104.232 19.3345 103.58 19.8383C102.933 20.3365 102.04 20.5856 100.901 20.5856Z" fill="black"/>
<path d="M113.16 20.3365V15.6041C113.16 15.0888 113.112 14.6164 113.014 14.187C112.917 13.7518 112.76 13.3739 112.542 13.0533C112.33 12.7269 112.053 12.475 111.709 12.2975C111.371 12.12 110.959 12.0312 110.473 12.0312C110.026 12.0312 109.631 12.1085 109.288 12.2631C108.95 12.4177 108.664 12.641 108.429 12.933C108.2 13.2193 108.026 13.5686 107.905 13.9808C107.785 14.3931 107.725 14.8626 107.725 15.3894L106.832 15.1919C106.832 14.2414 106.998 13.4426 107.33 12.7956C107.662 12.1486 108.12 11.659 108.704 11.3269C109.288 10.9948 109.958 10.8288 110.713 10.8288C111.268 10.8288 111.752 10.9147 112.164 11.0864C112.582 11.2582 112.934 11.4901 113.22 11.7821C113.512 12.0742 113.747 12.4091 113.924 12.787C114.102 13.1592 114.231 13.5571 114.311 13.9808C114.391 14.3988 114.431 14.8168 114.431 15.2348V20.3365H113.16ZM106.454 20.3365V7.96875H107.596V14.9514H107.725V20.3365H106.454Z" fill="black"/>
<path d="M120.824 20.5941C119.971 20.5941 119.249 20.3794 118.66 19.95C118.07 19.5148 117.624 18.9279 117.32 18.1893C117.017 17.445 116.865 16.6119 116.865 15.69C116.865 14.751 117.017 13.915 117.32 13.1821C117.629 12.4435 118.082 11.8623 118.677 11.4386C119.272 11.0149 120.005 10.803 120.875 10.803C121.722 10.803 122.449 11.0177 123.056 11.4472C123.663 11.8766 124.126 12.4606 124.447 13.1993C124.773 13.9379 124.936 14.7681 124.936 15.69C124.936 16.6176 124.773 17.4507 124.447 18.1893C124.121 18.9279 123.651 19.5148 123.039 19.95C122.426 20.3794 121.688 20.5941 120.824 20.5941ZM116.651 20.3365V7.96875H117.921V13.3539H117.784V20.3365H116.651ZM120.695 19.4175C121.342 19.4175 121.88 19.2543 122.309 18.9279C122.738 18.6016 123.059 18.1578 123.271 17.5967C123.488 17.0298 123.597 16.3943 123.597 15.69C123.597 14.9915 123.491 14.3616 123.279 13.8005C123.067 13.2394 122.744 12.7956 122.309 12.4692C121.88 12.1429 121.333 11.9797 120.669 11.9797C120.022 11.9797 119.484 12.1371 119.055 12.4521C118.631 12.767 118.313 13.205 118.102 13.7661C117.89 14.3215 117.784 14.9628 117.784 15.69C117.784 16.4057 117.89 17.047 118.102 17.6139C118.313 18.175 118.634 18.6159 119.063 18.9365C119.493 19.2572 120.036 19.4175 120.695 19.4175Z" fill="black"/>
<path d="M130.694 20.5941C129.773 20.5941 128.986 20.3852 128.333 19.9672C127.68 19.5492 127.18 18.9709 126.83 18.2323C126.481 17.4936 126.307 16.6462 126.307 15.69C126.307 14.7166 126.484 13.8635 126.839 13.1306C127.194 12.3977 127.698 11.8279 128.35 11.4214C129.008 11.0092 129.79 10.803 130.694 10.803C131.622 10.803 132.412 11.012 133.064 11.43C133.722 11.8423 134.223 12.4177 134.567 13.1563C134.916 13.8892 135.09 14.7338 135.09 15.69C135.09 16.6634 134.916 17.5194 134.567 18.258C134.217 18.9909 133.714 19.5635 133.055 19.9758C132.397 20.388 131.61 20.5941 130.694 20.5941ZM130.694 19.3831C131.725 19.3831 132.492 19.0425 132.995 18.3611C133.499 17.674 133.751 16.7836 133.751 15.69C133.751 14.5677 133.496 13.6745 132.987 13.0103C132.483 12.3461 131.719 12.014 130.694 12.014C130.002 12.014 129.429 12.1715 128.977 12.4864C128.531 12.7956 128.196 13.2279 127.972 13.7833C127.755 14.333 127.646 14.9685 127.646 15.69C127.646 16.8065 127.904 17.7026 128.419 18.3783C128.934 19.0482 129.693 19.3831 130.694 19.3831Z" fill="black"/>
<path d="M139.638 20.5941C138.939 20.5941 138.353 20.4682 137.877 20.2162C137.408 19.9643 137.056 19.6294 136.821 19.2114C136.587 18.7934 136.469 18.3382 136.469 17.8458C136.469 17.3419 136.57 16.9125 136.77 16.5575C136.976 16.1967 137.254 15.9019 137.603 15.6728C137.958 15.4438 138.367 15.2692 138.831 15.1489C139.3 15.0344 139.818 14.9342 140.385 14.8483C140.957 14.7567 141.515 14.6794 142.059 14.6164C142.609 14.5477 143.089 14.4819 143.502 14.4189L143.055 14.6937C143.072 13.7776 142.895 13.0991 142.523 12.6582C142.151 12.2173 141.504 11.9969 140.582 11.9969C139.947 11.9969 139.409 12.14 138.968 12.4263C138.533 12.7126 138.227 13.1649 138.049 13.7833L136.821 13.4226C137.033 12.5923 137.46 11.9482 138.101 11.4901C138.742 11.0321 139.575 10.803 140.599 10.803C141.447 10.803 142.165 10.9633 142.755 11.284C143.35 11.5989 143.771 12.057 144.017 12.6582C144.131 12.9273 144.206 13.2279 144.24 13.56C144.274 13.8921 144.291 14.2299 144.291 14.5735V20.3365H143.167V18.0089L143.493 18.1464C143.178 18.9423 142.689 19.5492 142.025 19.9672C141.361 20.3852 140.565 20.5941 139.638 20.5941ZM139.784 19.5034C140.373 19.5034 140.888 19.3975 141.329 19.1856C141.77 18.9737 142.125 18.6846 142.394 18.3181C142.663 17.946 142.838 17.528 142.918 17.0642C142.986 16.7664 143.024 16.4401 143.029 16.0851C143.035 15.7244 143.038 15.4552 143.038 15.2777L143.519 15.5268C143.089 15.5841 142.623 15.6413 142.119 15.6986C141.621 15.7558 141.129 15.8217 140.642 15.8961C140.161 15.9706 139.726 16.0593 139.337 16.1624C139.074 16.2368 138.819 16.3427 138.573 16.4802C138.327 16.6119 138.124 16.7894 137.963 17.0127C137.809 17.236 137.732 17.5137 137.732 17.8458C137.732 18.1149 137.797 18.3754 137.929 18.6273C138.066 18.8793 138.284 19.0883 138.582 19.2543C138.885 19.4204 139.286 19.5034 139.784 19.5034Z" fill="black"/>
<path d="M146.527 20.3365V11.0607H147.66V13.2937L147.437 13.0017C147.54 12.7269 147.674 12.475 147.84 12.2459C148.006 12.0112 148.187 11.8194 148.381 11.6705C148.622 11.4586 148.902 11.2983 149.223 11.1895C149.543 11.075 149.867 11.0092 150.193 10.992C150.519 10.9691 150.817 10.992 151.086 11.0607V12.2459C150.748 12.16 150.379 12.14 149.978 12.1858C149.578 12.2316 149.208 12.3919 148.871 12.6668C148.562 12.9073 148.33 13.1964 148.175 13.5342C148.021 13.8663 147.918 14.2213 147.866 14.5992C147.815 14.9714 147.789 15.3407 147.789 15.7072V20.3365H146.527Z" fill="black"/>
<path d="M156.145 20.5941C155.28 20.5941 154.542 20.3794 153.93 19.95C153.317 19.5148 152.848 18.9279 152.521 18.1893C152.195 17.4507 152.032 16.6176 152.032 15.69C152.032 14.7681 152.192 13.9379 152.513 13.1993C152.839 12.4606 153.306 11.8766 153.912 11.4472C154.519 11.0177 155.246 10.803 156.093 10.803C156.963 10.803 157.696 11.0149 158.291 11.4386C158.887 11.8623 159.336 12.4435 159.639 13.1821C159.949 13.915 160.103 14.751 160.103 15.69C160.103 16.6119 159.951 17.445 159.648 18.1893C159.345 18.9279 158.898 19.5148 158.309 19.95C157.719 20.3794 156.998 20.5941 156.145 20.5941ZM156.274 19.4175C156.932 19.4175 157.476 19.2572 157.905 18.9365C158.334 18.6159 158.655 18.175 158.867 17.6139C159.078 17.047 159.184 16.4057 159.184 15.69C159.184 14.9628 159.078 14.3215 158.867 13.7661C158.655 13.205 158.334 12.767 157.905 12.4521C157.481 12.1371 156.946 11.9797 156.299 11.9797C155.635 11.9797 155.086 12.1429 154.651 12.4692C154.216 12.7956 153.892 13.2394 153.681 13.8005C153.474 14.3616 153.371 14.9915 153.371 15.69C153.371 16.3943 153.477 17.0298 153.689 17.5967C153.907 18.1578 154.23 18.6016 154.659 18.9279C155.089 19.2543 155.627 19.4175 156.274 19.4175ZM159.184 20.3365V13.3539H159.047V7.96875H160.318V20.3365H159.184Z" fill="black"/>
</svg>
