<svg width="24" height="24" viewBox="0 0 24 24" fill="none" xmlns="http://www.w3.org/2000/svg">
<rect width="24" height="24" rx="12" fill="#D1E9FF"/>
<path d="M12.501 5.33301C15.7934 5.57713 18.4229 8.2066 18.667 11.499H16.6797C16.4028 11.499 16.1787 11.7231 16.1787 12C16.1787 12.2769 16.4028 12.501 16.6797 12.501H18.667C18.4229 15.7934 15.7934 18.4229 12.501 18.667V16.6797C12.501 16.4028 12.2769 16.1787 12 16.1787C11.7231 16.1787 11.499 16.4028 11.499 16.6797V18.667C8.2066 18.4229 5.57713 15.7934 5.33301 12.501H7.32031C7.59722 12.501 7.82129 12.2769 7.82129 12C7.82129 11.7231 7.59722 11.499 7.32031 11.499H5.33301C5.57713 8.2066 8.2066 5.57713 11.499 5.33301V7.32031C11.499 7.59722 11.7231 7.82129 12 7.82129C12.2769 7.82129 12.501 7.59722 12.501 7.32031V5.33301ZM12 10.1611C11.7231 10.1611 11.499 10.3862 11.499 10.6631V11.499H10.6631C10.3862 11.499 10.1611 11.7231 10.1611 12C10.1611 12.2769 10.3862 12.501 10.6631 12.501H11.499V13.3369C11.499 13.6138 11.7231 13.8389 12 13.8389C12.2769 13.8389 12.501 13.6138 12.501 13.3369V12.501H13.3369C13.6138 12.501 13.8389 12.2769 13.8389 12C13.8389 11.7231 13.6138 11.499 13.3369 11.499H12.501V10.6631C12.501 10.3862 12.2769 10.1611 12 10.1611ZM2.00977 2.00977H2V2H2.00977V2.00977Z" fill="#1570EF"/>
</svg>
