<svg width="24" height="24" viewBox="0 0 24 24" fill="none" xmlns="http://www.w3.org/2000/svg">
<rect width="24" height="24" rx="12" fill="#D1FADF"/>
<path d="M8 5.33301C8.93342 5.33301 9.40032 5.33299 9.75684 5.51465C10.0704 5.67444 10.3256 5.92957 10.4854 6.24316C10.667 6.59968 10.667 7.06658 10.667 8V16C10.667 16.9334 10.667 17.4003 10.4854 17.7568C10.3256 18.0704 10.0704 18.3256 9.75684 18.4854C9.40032 18.667 8.93342 18.667 8 18.667C7.06658 18.667 6.59968 18.667 6.24316 18.4854C5.92957 18.3256 5.67444 18.0704 5.51465 17.7568C5.33299 17.4003 5.33301 16.9334 5.33301 16V8C5.33301 7.06658 5.33299 6.59968 5.51465 6.24316C5.67444 5.92957 5.92957 5.67444 6.24316 5.51465C6.59968 5.33299 7.06658 5.33301 8 5.33301ZM15.9326 13.333C16.8658 13.333 17.333 13.3331 17.6895 13.5146C18.003 13.6744 18.2582 13.9296 18.418 14.2432C18.5996 14.5997 18.5996 15.0666 18.5996 16C18.5996 16.9334 18.5996 17.4003 18.418 17.7568C18.2582 18.0704 18.003 18.3256 17.6895 18.4854C17.333 18.6669 16.8658 18.667 15.9326 18.667H12.5264C12.0516 18.6669 11.667 18.2619 11.667 17.7871C11.6671 17.5591 11.7577 17.3594 11.9189 17.1982L15.7861 13.333H15.9326ZM7.33301 16.167C7.05701 16.1672 6.83301 16.391 6.83301 16.667C6.83318 16.9429 7.05712 17.1668 7.33301 17.167H8.66699C8.94288 17.1668 9.16682 16.9429 9.16699 16.667C9.16699 16.391 8.94299 16.1672 8.66699 16.167H7.33301ZM14.5117 6.24023C14.8116 6.17559 15.1235 6.19466 15.4131 6.2959C15.7651 6.41912 16.0662 6.71482 16.667 7.30566C17.3334 7.97204 17.6665 8.30591 17.79 8.6875C17.8952 9.01279 17.8982 9.36261 17.7979 9.68945C17.6802 10.0728 17.3557 10.4074 16.707 11.0762L12.8145 15.1357C12.3281 15.643 12.0849 15.8971 11.876 15.8135C11.667 15.7295 11.667 15.3778 11.667 14.6748V9.18262C11.6678 8.74266 11.8418 8.32045 12.1523 8.00879L12.8555 7.30566L13.1426 7.08691C13.8121 6.57508 14.1471 6.31887 14.5117 6.24023ZM2.00977 2.00977H2V2H2.00977V2.00977Z" fill="#039855"/>
</svg>
